<mxfile host="app.diagrams.net" modified="2024-02-06T22:17:37.294Z" agent="Mozilla/5.0 (Macintosh; Intel Mac OS X 10_15_7) AppleWebKit/537.36 (KHTML, like Gecko) Chrome/121.0.0.0 Safari/537.36" etag="ja0li9B_cBy5r0AMYwRb" version="22.1.21" type="github" pages="2">
  <diagram name="Page-1" id="kkmQ5Zyxi5VdZ9s_22Ci">
    <mxGraphModel dx="2657" dy="713" grid="1" gridSize="10" guides="1" tooltips="1" connect="1" arrows="1" fold="1" page="1" pageScale="1" pageWidth="850" pageHeight="1100" math="0" shadow="0">
      <root>
        <mxCell id="0" />
        <mxCell id="1" parent="0" />
        <mxCell id="TYLQ5CKQCe1A_tL6TxEz-5" style="edgeStyle=entityRelationEdgeStyle;orthogonalLoop=1;jettySize=auto;html=1;exitX=1;exitY=0.5;exitDx=0;exitDy=0;" parent="1" source="TYLQ5CKQCe1A_tL6TxEz-2" target="TYLQ5CKQCe1A_tL6TxEz-3" edge="1">
          <mxGeometry relative="1" as="geometry" />
        </mxCell>
        <mxCell id="TYLQ5CKQCe1A_tL6TxEz-8" style="edgeStyle=entityRelationEdgeStyle;orthogonalLoop=1;jettySize=auto;html=1;exitX=1;exitY=0.5;exitDx=0;exitDy=0;" parent="1" source="TYLQ5CKQCe1A_tL6TxEz-2" target="TYLQ5CKQCe1A_tL6TxEz-6" edge="1">
          <mxGeometry relative="1" as="geometry" />
        </mxCell>
        <mxCell id="TYLQ5CKQCe1A_tL6TxEz-9" style="edgeStyle=entityRelationEdgeStyle;orthogonalLoop=1;jettySize=auto;html=1;exitX=1;exitY=0.5;exitDx=0;exitDy=0;" parent="1" source="TYLQ5CKQCe1A_tL6TxEz-2" target="TYLQ5CKQCe1A_tL6TxEz-7" edge="1">
          <mxGeometry relative="1" as="geometry" />
        </mxCell>
        <mxCell id="TYLQ5CKQCe1A_tL6TxEz-2" value="ESMM route" style="rounded=0;whiteSpace=wrap;html=1;" parent="1" vertex="1">
          <mxGeometry x="-120" y="310" width="120" height="60" as="geometry" />
        </mxCell>
        <mxCell id="TYLQ5CKQCe1A_tL6TxEz-3" value="Single-leg route" style="rounded=0;whiteSpace=wrap;html=1;" parent="1" vertex="1">
          <mxGeometry x="130" y="140" width="120" height="60" as="geometry" />
        </mxCell>
        <mxCell id="TYLQ5CKQCe1A_tL6TxEz-6" value="Multi-leg route &lt;b&gt;with&lt;/b&gt; sortation Ship Method" style="rounded=0;whiteSpace=wrap;html=1;" parent="1" vertex="1">
          <mxGeometry x="130" y="310" width="140" height="60" as="geometry" />
        </mxCell>
        <mxCell id="TYLQ5CKQCe1A_tL6TxEz-7" value="Multi-leg route &lt;b&gt;without&lt;/b&gt; sortation Ship Method" style="rounded=0;whiteSpace=wrap;html=1;" parent="1" vertex="1">
          <mxGeometry x="130" y="480" width="140" height="60" as="geometry" />
        </mxCell>
      </root>
    </mxGraphModel>
  </diagram>
  <diagram id="R-cQEwO6vi24qeTfF7LC" name="End-to-End Workflow">
    <mxGraphModel dx="2976" dy="839" grid="1" gridSize="10" guides="1" tooltips="1" connect="1" arrows="1" fold="1" page="1" pageScale="1" pageWidth="850" pageHeight="1100" math="0" shadow="0">
      <root>
        <mxCell id="0" />
        <mxCell id="1" parent="0" />
        <mxCell id="xrJ3MpQCigA4VYRjtulz-3" value="" style="endArrow=none;dashed=1;html=1;rounded=0;" edge="1" parent="1">
          <mxGeometry width="50" height="50" relative="1" as="geometry">
            <mxPoint x="360" y="880" as="sourcePoint" />
            <mxPoint x="360" y="120" as="targetPoint" />
          </mxGeometry>
        </mxCell>
        <mxCell id="xrJ3MpQCigA4VYRjtulz-4" value="" style="endArrow=none;dashed=1;html=1;rounded=0;" edge="1" parent="1">
          <mxGeometry width="50" height="50" relative="1" as="geometry">
            <mxPoint x="-120" y="200" as="sourcePoint" />
            <mxPoint x="1330" y="200" as="targetPoint" />
          </mxGeometry>
        </mxCell>
        <mxCell id="xrJ3MpQCigA4VYRjtulz-5" value="Build Cache" style="text;html=1;align=center;verticalAlign=middle;resizable=0;points=[];autosize=1;strokeColor=none;fillColor=none;" vertex="1" parent="1">
          <mxGeometry x="100" y="148" width="90" height="30" as="geometry" />
        </mxCell>
        <mxCell id="xrJ3MpQCigA4VYRjtulz-6" value="Runtime" style="text;html=1;align=center;verticalAlign=middle;resizable=0;points=[];autosize=1;strokeColor=none;fillColor=none;" vertex="1" parent="1">
          <mxGeometry x="590" y="148" width="70" height="30" as="geometry" />
        </mxCell>
        <mxCell id="xrJ3MpQCigA4VYRjtulz-16" value="Single-leg: FC or SC or DS -&amp;gt; Customer_Address" style="rounded=1;whiteSpace=wrap;html=1;" vertex="1" parent="1">
          <mxGeometry x="-80" y="280" width="230" height="60" as="geometry" />
        </mxCell>
        <mxCell id="xrJ3MpQCigA4VYRjtulz-18" value="Multiple-leg (with SortationShipMethod): FC -&amp;gt; &lt;b&gt;&lt;font color=&quot;#ff8000&quot;&gt;SC1 -&amp;gt; SC1&lt;/font&gt;&lt;/b&gt; -&amp;gt; SC2 -&amp;gt; DS -&amp;gt;&amp;nbsp; Customer_Address" style="rounded=1;whiteSpace=wrap;html=1;" vertex="1" parent="1">
          <mxGeometry x="-80" y="370" width="230" height="60" as="geometry" />
        </mxCell>
        <mxCell id="xrJ3MpQCigA4VYRjtulz-19" value="Multiple-leg (without SortationShipMethod): FC -&amp;gt; SC1 -&amp;gt; SC2 -&amp;gt; DS -&amp;gt;&amp;nbsp; Customer_Address" style="rounded=1;whiteSpace=wrap;html=1;" vertex="1" parent="1">
          <mxGeometry x="-80" y="460" width="230" height="60" as="geometry" />
        </mxCell>
        <mxCell id="xrJ3MpQCigA4VYRjtulz-23" style="edgeStyle=entityRelationEdgeStyle;rounded=0;orthogonalLoop=1;jettySize=auto;html=1;exitX=1;exitY=0.5;exitDx=0;exitDy=0;" edge="1" parent="1" source="xrJ3MpQCigA4VYRjtulz-20" target="xrJ3MpQCigA4VYRjtulz-16">
          <mxGeometry relative="1" as="geometry" />
        </mxCell>
        <mxCell id="xrJ3MpQCigA4VYRjtulz-24" style="edgeStyle=entityRelationEdgeStyle;rounded=0;orthogonalLoop=1;jettySize=auto;html=1;exitX=1;exitY=0.5;exitDx=0;exitDy=0;entryX=0;entryY=0.5;entryDx=0;entryDy=0;" edge="1" parent="1" source="xrJ3MpQCigA4VYRjtulz-20" target="xrJ3MpQCigA4VYRjtulz-18">
          <mxGeometry relative="1" as="geometry" />
        </mxCell>
        <mxCell id="xrJ3MpQCigA4VYRjtulz-25" style="edgeStyle=entityRelationEdgeStyle;rounded=0;orthogonalLoop=1;jettySize=auto;html=1;exitX=1;exitY=0.5;exitDx=0;exitDy=0;entryX=0;entryY=0.5;entryDx=0;entryDy=0;" edge="1" parent="1" source="xrJ3MpQCigA4VYRjtulz-20" target="xrJ3MpQCigA4VYRjtulz-19">
          <mxGeometry relative="1" as="geometry" />
        </mxCell>
        <mxCell id="xrJ3MpQCigA4VYRjtulz-20" value="ESMM Cache" style="rounded=1;whiteSpace=wrap;html=1;" vertex="1" parent="1">
          <mxGeometry x="-390" y="370" width="120" height="60" as="geometry" />
        </mxCell>
        <mxCell id="xrJ3MpQCigA4VYRjtulz-41" style="edgeStyle=entityRelationEdgeStyle;rounded=0;orthogonalLoop=1;jettySize=auto;html=1;exitX=1;exitY=0.5;exitDx=0;exitDy=0;" edge="1" parent="1" source="xrJ3MpQCigA4VYRjtulz-28" target="xrJ3MpQCigA4VYRjtulz-31">
          <mxGeometry relative="1" as="geometry" />
        </mxCell>
        <mxCell id="xrJ3MpQCigA4VYRjtulz-28" value="WPC Cache" style="rounded=0;whiteSpace=wrap;html=1;" vertex="1" parent="1">
          <mxGeometry x="30" y="620" width="120" height="60" as="geometry" />
        </mxCell>
        <mxCell id="xrJ3MpQCigA4VYRjtulz-42" style="edgeStyle=entityRelationEdgeStyle;rounded=0;orthogonalLoop=1;jettySize=auto;html=1;exitX=1;exitY=0.5;exitDx=0;exitDy=0;entryX=0;entryY=0.5;entryDx=0;entryDy=0;" edge="1" parent="1" source="xrJ3MpQCigA4VYRjtulz-29" target="xrJ3MpQCigA4VYRjtulz-32">
          <mxGeometry relative="1" as="geometry" />
        </mxCell>
        <mxCell id="xrJ3MpQCigA4VYRjtulz-29" value="PCC Chains Cache" style="rounded=0;whiteSpace=wrap;html=1;" vertex="1" parent="1">
          <mxGeometry x="30" y="720" width="120" height="60" as="geometry" />
        </mxCell>
        <mxCell id="xrJ3MpQCigA4VYRjtulz-27" value="PCC + LastNodeWPC Expansion" style="rounded=1;whiteSpace=wrap;html=1;" vertex="1" parent="1">
          <mxGeometry x="829.998743169399" y="140" width="346.6666666666667" height="60" as="geometry" />
        </mxCell>
        <mxCell id="xrJ3MpQCigA4VYRjtulz-32" value="Map&amp;lt;ESMM_node_sequence, PCC_Chains&amp;gt;&amp;nbsp; DAO" style="rounded=0;whiteSpace=wrap;html=1;" vertex="1" parent="1">
          <mxGeometry x="450" y="720" width="180" height="60" as="geometry" />
        </mxCell>
        <mxCell id="xrJ3MpQCigA4VYRjtulz-52" style="edgeStyle=entityRelationEdgeStyle;rounded=0;orthogonalLoop=1;jettySize=auto;html=1;exitX=1;exitY=0.5;exitDx=0;exitDy=0;entryX=0;entryY=0.5;entryDx=0;entryDy=0;" edge="1" parent="1" source="xrJ3MpQCigA4VYRjtulz-36" target="xrJ3MpQCigA4VYRjtulz-49">
          <mxGeometry relative="1" as="geometry" />
        </mxCell>
        <mxCell id="xrJ3MpQCigA4VYRjtulz-36" value="Applicable PCCs" style="rounded=0;whiteSpace=wrap;html=1;" vertex="1" parent="1">
          <mxGeometry x="740" y="720" width="120" height="60" as="geometry" />
        </mxCell>
        <mxCell id="xrJ3MpQCigA4VYRjtulz-38" style="edgeStyle=entityRelationEdgeStyle;rounded=0;orthogonalLoop=1;jettySize=auto;html=1;exitX=1;exitY=0.5;exitDx=0;exitDy=0;entryX=0;entryY=0.5;entryDx=0;entryDy=0;" edge="1" parent="1" source="xrJ3MpQCigA4VYRjtulz-32" target="xrJ3MpQCigA4VYRjtulz-36">
          <mxGeometry relative="1" as="geometry" />
        </mxCell>
        <mxCell id="xrJ3MpQCigA4VYRjtulz-43" style="edgeStyle=entityRelationEdgeStyle;rounded=0;orthogonalLoop=1;jettySize=auto;html=1;exitX=0.5;exitY=1;exitDx=0;exitDy=0;entryX=0;entryY=0.5;entryDx=0;entryDy=0;" edge="1" parent="1" source="xrJ3MpQCigA4VYRjtulz-30" target="xrJ3MpQCigA4VYRjtulz-35">
          <mxGeometry relative="1" as="geometry" />
        </mxCell>
        <mxCell id="xrJ3MpQCigA4VYRjtulz-30" value="Configured route" style="rounded=1;whiteSpace=wrap;html=1;" vertex="1" parent="1">
          <mxGeometry x="590" y="490" width="125" height="60" as="geometry" />
        </mxCell>
        <mxCell id="xrJ3MpQCigA4VYRjtulz-31" value="WPC DAO" style="rounded=0;whiteSpace=wrap;html=1;" vertex="1" parent="1">
          <mxGeometry x="450" y="620" width="120" height="60" as="geometry" />
        </mxCell>
        <mxCell id="xrJ3MpQCigA4VYRjtulz-37" style="edgeStyle=entityRelationEdgeStyle;rounded=0;orthogonalLoop=1;jettySize=auto;html=1;exitX=1;exitY=0.5;exitDx=0;exitDy=0;" edge="1" parent="1" source="xrJ3MpQCigA4VYRjtulz-31" target="xrJ3MpQCigA4VYRjtulz-35">
          <mxGeometry relative="1" as="geometry" />
        </mxCell>
        <mxCell id="xrJ3MpQCigA4VYRjtulz-51" style="edgeStyle=entityRelationEdgeStyle;rounded=0;orthogonalLoop=1;jettySize=auto;html=1;exitX=1;exitY=0.5;exitDx=0;exitDy=0;" edge="1" parent="1" source="xrJ3MpQCigA4VYRjtulz-35" target="xrJ3MpQCigA4VYRjtulz-48">
          <mxGeometry relative="1" as="geometry" />
        </mxCell>
        <mxCell id="xrJ3MpQCigA4VYRjtulz-35" value="Applicable WPCs" style="rounded=0;whiteSpace=wrap;html=1;" vertex="1" parent="1">
          <mxGeometry x="745" y="620" width="120" height="60" as="geometry" />
        </mxCell>
        <mxCell id="xrJ3MpQCigA4VYRjtulz-53" style="edgeStyle=entityRelationEdgeStyle;rounded=0;orthogonalLoop=1;jettySize=auto;html=1;exitX=0.5;exitY=1;exitDx=0;exitDy=0;" edge="1" parent="1" source="xrJ3MpQCigA4VYRjtulz-47" target="xrJ3MpQCigA4VYRjtulz-48">
          <mxGeometry relative="1" as="geometry" />
        </mxCell>
        <mxCell id="xrJ3MpQCigA4VYRjtulz-47" value="Shipment" style="shape=hexagon;perimeter=hexagonPerimeter2;whiteSpace=wrap;html=1;fixedSize=1;" vertex="1" parent="1">
          <mxGeometry x="880" y="470" width="120" height="80" as="geometry" />
        </mxCell>
        <mxCell id="xrJ3MpQCigA4VYRjtulz-57" style="edgeStyle=entityRelationEdgeStyle;rounded=0;orthogonalLoop=1;jettySize=auto;html=1;exitX=1;exitY=0.5;exitDx=0;exitDy=0;" edge="1" parent="1" source="xrJ3MpQCigA4VYRjtulz-48" target="xrJ3MpQCigA4VYRjtulz-56">
          <mxGeometry relative="1" as="geometry" />
        </mxCell>
        <mxCell id="xrJ3MpQCigA4VYRjtulz-48" value="Filtered WPCs" style="rounded=0;whiteSpace=wrap;html=1;" vertex="1" parent="1">
          <mxGeometry x="1030" y="620" width="120" height="60" as="geometry" />
        </mxCell>
        <mxCell id="xrJ3MpQCigA4VYRjtulz-58" style="edgeStyle=entityRelationEdgeStyle;rounded=0;orthogonalLoop=1;jettySize=auto;html=1;exitX=1;exitY=0.5;exitDx=0;exitDy=0;" edge="1" parent="1" source="xrJ3MpQCigA4VYRjtulz-49" target="xrJ3MpQCigA4VYRjtulz-56">
          <mxGeometry relative="1" as="geometry" />
        </mxCell>
        <mxCell id="xrJ3MpQCigA4VYRjtulz-49" value="Filtered PCCs" style="rounded=0;whiteSpace=wrap;html=1;" vertex="1" parent="1">
          <mxGeometry x="1030" y="720" width="120" height="60" as="geometry" />
        </mxCell>
        <mxCell id="xrJ3MpQCigA4VYRjtulz-54" style="edgeStyle=entityRelationEdgeStyle;rounded=0;orthogonalLoop=1;jettySize=auto;html=1;exitX=0.5;exitY=0;exitDx=0;exitDy=0;entryX=0;entryY=0.5;entryDx=0;entryDy=0;" edge="1" parent="1" source="xrJ3MpQCigA4VYRjtulz-50" target="xrJ3MpQCigA4VYRjtulz-49">
          <mxGeometry relative="1" as="geometry" />
        </mxCell>
        <mxCell id="xrJ3MpQCigA4VYRjtulz-50" value="Other filters" style="shape=hexagon;perimeter=hexagonPerimeter2;whiteSpace=wrap;html=1;fixedSize=1;" vertex="1" parent="1">
          <mxGeometry x="880" y="850" width="120" height="80" as="geometry" />
        </mxCell>
        <mxCell id="xrJ3MpQCigA4VYRjtulz-59" style="edgeStyle=entityRelationEdgeStyle;rounded=0;orthogonalLoop=1;jettySize=auto;html=1;exitX=0.5;exitY=1;exitDx=0;exitDy=0;entryX=0;entryY=0.5;entryDx=0;entryDy=0;" edge="1" parent="1" source="xrJ3MpQCigA4VYRjtulz-55" target="xrJ3MpQCigA4VYRjtulz-56">
          <mxGeometry relative="1" as="geometry" />
        </mxCell>
        <mxCell id="xrJ3MpQCigA4VYRjtulz-55" value="Configured route" style="rounded=1;whiteSpace=wrap;html=1;" vertex="1" parent="1">
          <mxGeometry x="1213" y="470" width="125" height="60" as="geometry" />
        </mxCell>
        <mxCell id="xrJ3MpQCigA4VYRjtulz-56" value="Expanded ESMM Routes" style="rounded=1;whiteSpace=wrap;html=1;" vertex="1" parent="1">
          <mxGeometry x="1420" y="660" width="125" height="60" as="geometry" />
        </mxCell>
      </root>
    </mxGraphModel>
  </diagram>
</mxfile>
